<svg width="74" height="73" viewBox="0 0 74 73" fill="none" xmlns="http://www.w3.org/2000/svg">
<path d="M6.16667 21.2917V19.7708C5.75779 19.7708 5.36566 19.9311 5.07654 20.2163C4.78743 20.5015 4.625 20.8883 4.625 21.2917H6.16667ZM40.0833 21.2917H41.625C41.625 20.8883 41.4626 20.5015 41.1735 20.2163C40.8843 19.9311 40.4922 19.7708 40.0833 19.7708V21.2917ZM40.0833 27.375V25.8542C39.6745 25.8542 39.2823 26.0144 38.9932 26.2996C38.7041 26.5848 38.5417 26.9716 38.5417 27.375H40.0833ZM6.16667 22.8125H40.0833V19.7708H6.16667V22.8125ZM38.5417 21.2917V57.7917H41.625V21.2917H38.5417ZM7.70833 51.7083V21.2917H4.625V51.7083H7.70833ZM40.0833 28.8958H55.5V25.8542H40.0833V28.8958ZM66.2917 39.5417V51.7083H69.375V39.5417H66.2917ZM41.625 57.7917V27.375H38.5417V57.7917H41.625ZM58.7683 61.0158C57.9011 61.8702 56.7256 62.3501 55.5 62.3501C54.2744 62.3501 53.0989 61.8702 52.2317 61.0158L50.0487 63.1693C50.7645 63.8756 51.6143 64.4359 52.5497 64.8182C53.485 65.2005 54.4876 65.3972 55.5 65.3972C56.5124 65.3972 57.515 65.2005 58.4503 64.8182C59.3857 64.4359 60.2355 63.8756 60.9513 63.1693L58.7683 61.0158ZM52.2317 54.5675C53.0989 53.7131 54.2744 53.2332 55.5 53.2332C56.7256 53.2332 57.9011 53.7131 58.7683 54.5675L60.9513 52.414C60.2355 51.7077 59.3857 51.1474 58.4503 50.7651C57.515 50.3828 56.5124 50.1861 55.5 50.1861C54.4876 50.1861 53.485 50.3828 52.5497 50.7651C51.6143 51.1474 50.7645 51.7077 50.0487 52.414L52.2317 54.5675ZM21.7683 61.0158C20.9011 61.8702 19.7256 62.3501 18.5 62.3501C17.2744 62.3501 16.0989 61.8702 15.2317 61.0158L13.0487 63.1693C13.7645 63.8756 14.6143 64.4359 15.5497 64.8182C16.485 65.2005 17.4876 65.3972 18.5 65.3972C19.5124 65.3972 20.515 65.2005 21.4503 64.8182C22.3857 64.4359 23.2355 63.8756 23.9513 63.1693L21.7683 61.0158ZM15.2317 54.5675C16.0989 53.7131 17.2744 53.2332 18.5 53.2332C19.7256 53.2332 20.9011 53.7131 21.7683 54.5675L23.9513 52.414C23.2355 51.7077 22.3857 51.1474 21.4503 50.7651C20.515 50.3828 19.5124 50.1861 18.5 50.1861C17.4876 50.1861 16.485 50.3828 15.5497 50.7651C14.6143 51.1474 13.7645 51.7077 13.0487 52.414L15.2317 54.5675ZM58.7683 54.5675C59.6748 55.4557 60.125 56.6206 60.125 57.7917H63.2083C63.2083 55.848 62.456 53.8983 60.9513 52.414L58.7683 54.5675ZM60.125 57.7917C60.125 58.9627 59.6748 60.1277 58.7683 61.0158L60.9513 63.1693C61.6679 62.4637 62.2361 61.6254 62.6235 60.7025C63.0108 59.7797 63.2095 58.7905 63.2083 57.7917H60.125ZM49.3333 56.2708H40.0833V59.3125H49.3333V56.2708ZM52.2317 61.0158C51.8013 60.5932 51.4598 60.0907 51.227 59.5374C50.9941 58.984 50.8745 58.3908 50.875 57.7917H47.7917C47.7917 59.7353 48.544 61.685 50.0487 63.1693L52.2317 61.0158ZM50.875 57.7917C50.875 56.6206 51.3252 55.4557 52.2317 54.5675L50.0487 52.414C49.3321 53.1196 48.7639 53.9579 48.3765 54.8808C47.9892 55.8036 47.7905 56.7928 47.7917 57.7917H50.875ZM15.2317 61.0158C14.8013 60.5932 14.4598 60.0907 14.227 59.5374C13.9941 58.984 13.8745 58.3908 13.875 57.7917H10.7917C10.7917 59.7353 11.544 61.685 13.0487 63.1693L15.2317 61.0158ZM13.875 57.7917C13.875 56.6206 14.3252 55.4557 15.2317 54.5675L13.0487 52.414C12.3321 53.1196 11.7639 53.9579 11.3765 54.8808C10.9892 55.8036 10.7905 56.7928 10.7917 57.7917H13.875ZM40.0833 56.2708H24.6667V59.3125H40.0833V56.2708ZM21.7683 54.5675C22.6748 55.4557 23.125 56.6206 23.125 57.7917H26.2083C26.2083 55.848 25.456 53.8983 23.9513 52.414L21.7683 54.5675ZM23.125 57.7917C23.125 58.9627 22.6748 60.1277 21.7683 61.0158L23.9513 63.1693C24.6679 62.4637 25.2361 61.6254 25.6235 60.7025C26.0108 59.7797 26.2095 58.7905 26.2083 57.7917H23.125ZM66.2917 51.7083C66.2917 52.9184 65.8044 54.0789 64.937 54.9345C64.0697 55.7901 62.8933 56.2708 61.6667 56.2708V59.3125C63.711 59.3125 65.6717 58.5113 67.1173 57.0853C68.5629 55.6592 69.375 53.7251 69.375 51.7083H66.2917ZM55.5 28.8958C58.3621 28.8958 61.107 30.0174 63.1309 32.0139C65.1547 34.0104 66.2917 36.7182 66.2917 39.5417H69.375C69.375 35.9115 67.9132 32.43 65.3111 29.8631C62.709 27.2962 59.1799 25.8542 55.5 25.8542V28.8958ZM4.625 51.7083C4.625 53.7251 5.43713 55.6592 6.88272 57.0853C8.32831 58.5113 10.289 59.3125 12.3333 59.3125V56.2708C11.1067 56.2708 9.93032 55.7901 9.06296 54.9345C8.19561 54.0789 7.70833 52.9184 7.70833 51.7083H4.625Z" fill="#5A6F71"/>
<path d="M23.125 18.25C23.125 15.8299 22.1505 13.5089 20.4157 11.7977C18.681 10.0864 16.3283 9.125 13.875 9.125C13.0573 9.125 12.273 9.44546 11.6948 10.0159C11.1165 10.5863 10.7917 11.36 10.7917 12.1667C10.7917 14.5868 11.7662 16.9077 13.5009 18.619C15.2356 20.3303 17.5884 21.2917 20.0417 21.2917H23.125M23.125 18.25V21.2917M23.125 18.25C23.125 15.8299 24.0996 13.5089 25.8343 11.7977C27.569 10.0864 29.9218 9.125 32.375 9.125C33.1928 9.125 33.977 9.44546 34.5553 10.0159C35.1335 10.5863 35.4583 11.36 35.4583 12.1667C35.4583 14.5868 34.4838 16.9077 32.7491 18.619C31.0144 20.3303 28.6616 21.2917 26.2083 21.2917H23.125" stroke="#5A6F71" stroke-linejoin="round"/>
</svg>
