<svg width="24" height="24" viewBox="0 0 24 24" fill="none" xmlns="http://www.w3.org/2000/svg">
<g clip-path="url(#clip0_4_24)">
<path fill-rule="evenodd" clip-rule="evenodd" d="M12.8 1.6288V0H11.2V1.6288C8.72644 1.81943 6.40251 2.88801 4.64767 4.64168C2.89282 6.39535 1.82268 8.71857 1.6304 11.192H0V12.792H1.6304C1.82195 15.2671 2.89147 17.5923 4.64612 19.3484C6.40076 21.1045 8.72508 22.176 11.2 22.3696V24H12.8V22.3696C15.2749 22.176 17.5992 21.1045 19.3539 19.3484C21.1085 17.5923 22.178 15.2671 22.3696 12.792H24V11.192H22.3696C22.1773 8.71857 21.1072 6.39535 19.3523 4.64168C17.5975 2.88801 15.2736 1.81943 12.8 1.6288ZM12.8 4.8V11.192H19.2V12.792H12.8V19.2H11.2V12.792H4.8V11.192H11.2V4.8H12.8Z" fill="black"/>
</g>
<defs>
<clipPath id="clip0_4_24">
<rect width="24" height="24" fill="white"/>
</clipPath>
</defs>
</svg>
