<svg width="38" height="38" viewBox="0 0 38 38" fill="none" xmlns="http://www.w3.org/2000/svg">
<path d="M20.3291 25.919C18.093 27.6548 15.2795 28.4732 12.4614 28.2075C9.64317 27.9418 7.03214 26.6121 5.15974 24.4891C3.28735 22.366 2.29433 19.6092 2.38283 16.7797C2.47132 13.9502 3.63468 11.2608 5.63609 9.25892C7.63786 7.25738 10.3271 6.09395 13.1564 6.00545C15.9857 5.91694 18.7423 6.91002 20.8653 8.78254C22.9882 10.6551 24.3178 13.2663 24.5835 16.0846C24.8491 18.903 24.0308 21.7167 22.2951 23.9529L27.9335 29.5916C28.1166 29.7616 28.2504 29.9779 28.3209 30.2176C28.3914 30.4574 28.396 30.7117 28.3341 30.9538C28.2722 31.1959 28.1461 31.4168 27.9692 31.5933C27.7923 31.7697 27.5711 31.8952 27.3288 31.9565C27.087 32.0185 26.833 32.0142 26.5934 31.944C26.3539 31.8738 26.1376 31.7404 25.9675 31.5577L20.3291 25.919ZM21.85 17.1271C21.8665 16.0209 21.6629 14.9225 21.251 13.8957C20.8391 12.8689 20.2271 11.9342 19.4507 11.1461C18.6744 10.358 17.749 9.73218 16.7285 9.30499C15.7081 8.87781 14.6128 8.65782 13.5066 8.65782C12.4003 8.65782 11.3051 8.87781 10.2846 9.30499C9.26414 9.73218 8.3388 10.358 7.5624 11.1461C6.78601 11.9342 6.17406 12.8689 5.76217 13.8957C5.35027 14.9225 5.14665 16.0209 5.16314 17.1271C5.19581 19.3185 6.08923 21.4091 7.65037 22.9473C9.21151 24.4854 11.3151 25.3476 13.5066 25.3476C15.6981 25.3476 17.8016 24.4854 19.3628 22.9473C20.9239 21.4091 21.8173 19.3185 21.85 17.1271Z" fill="#88AB8E"/>
</svg>
