<svg width="65" height="65" viewBox="0 0 65 65" fill="none" xmlns="http://www.w3.org/2000/svg">
<path d="M32.5 60.9375C16.8188 60.9375 4.0625 48.1812 4.0625 32.5C4.0625 16.8188 16.8188 4.0625 32.5 4.0625C48.1812 4.0625 60.9375 16.8188 60.9375 32.5C60.9375 48.1812 48.1812 60.9375 32.5 60.9375ZM32.5 8.125C19.0531 8.125 8.125 19.0531 8.125 32.5C8.125 45.9469 19.0531 56.875 32.5 56.875C45.9469 56.875 56.875 45.9469 56.875 32.5C56.875 19.0531 45.9469 8.125 32.5 8.125Z" fill="#5A6F71"/>
<path d="M40.625 42.6562C40.2594 42.6562 39.8938 42.575 39.5688 42.3719L29.4125 36.2781C29.1117 36.0974 28.8634 35.841 28.6924 35.5345C28.5213 35.2281 28.4335 34.8822 28.4375 34.5312V18.2812C28.4375 17.1438 29.3313 16.25 30.4688 16.25C31.6063 16.25 32.5 17.1438 32.5 18.2812V33.3938L41.6813 38.8781C42.0594 39.1099 42.3517 39.4587 42.5138 39.8715C42.6759 40.2844 42.699 40.7388 42.5796 41.166C42.4602 41.5932 42.2048 41.9697 41.852 42.2387C41.4993 42.5076 41.0686 42.6542 40.625 42.6562Z" fill="#5A6F71"/>
</svg>
